<?xml version="1.0" encoding="UTF-8"?><svg id="Layer_1" xmlns="http://www.w3.org/2000/svg" xmlns:xlink="http://www.w3.org/1999/xlink" viewBox="0 0 1080 1080"><defs><style>.cls-1{fill:#fff;}.cls-2{fill:url(#linear-gradient);}</style><linearGradient id="linear-gradient" x1="0" y1="0" x2="1080" y2="1080" gradientUnits="userSpaceOnUse"><stop offset="0" stop-color="#ef7820"/><stop offset="1" stop-color="#e6381f"/></linearGradient></defs><rect class="cls-2" width="1080" height="1080"/><path class="cls-1" d="m394.3,475.06c-22.48,0-39.76,5.76-52.38,11.79l3.64,8.79c3.6,8.72,13.03,13.53,22.18,11.23,6.66-1.67,14.78-3.02,23.54-3.02,19.2,0,27.7,7.95,27.7,19.47v14.26c-7.95-6.03-25.5-9.33-35.1-9.33-26.33,0-57.04,12.07-57.04,44.15,0,27.15,19.75,51.01,62.8,51.01,27.46,0,46.43-6.32,58.08-13.43,3.46-2.11,5.54-5.89,5.54-9.94v-68.22c0-34.55-12.34-56.76-58.96-56.76Zm24.68,111.5c0,2.87-1.7,5.5-4.37,6.55-5.94,2.33-13.57,3.7-22.23,3.7-17.55,0-28.52-9.32-28.52-23.86,0-12.34,12.34-19.19,26.05-19.19,9.63,0,19.45,3.64,25.78,7.72,2.04,1.32,3.29,3.56,3.29,5.99v19.09Z"/><path class="cls-1" d="m378.71,457.91h0c-5.29-3.92-6.29-11.43-2.22-16.61l28.82-36.66c3.93-5,11.15-5.94,16.23-2.11l8.12,6.13c6.02,4.55,6.22,13.52.41,18.33l-36.94,30.54c-4.14,3.43-10.09,3.58-14.41.38Z"/><path class="cls-1" d="m579.14,475.06c-22.49,0-39.76,5.75-52.37,11.78l3.62,8.81c3.6,8.7,13.04,13.51,22.18,11.22,6.67-1.68,14.8-3.03,23.56-3.03,19.18,0,27.69,7.96,27.69,19.48v14.26c-7.95-6.03-25.5-9.32-35.1-9.32-26.33,0-57.04,12.05-57.04,44.14,0,27.14,19.74,51.01,62.79,51.01,27.46,0,46.43-6.33,58.09-13.43,3.46-2.11,5.53-5.9,5.53-9.95v-68.21c0-34.56-12.33-56.76-58.95-56.76Zm24.68,111.49c0,2.87-1.7,5.51-4.38,6.57-5.93,2.32-13.57,3.68-22.22,3.68-17.55,0-28.52-9.32-28.52-23.85,0-12.33,12.34-19.2,26.05-19.2,9.63,0,19.45,3.65,25.78,7.72,2.04,1.33,3.29,3.58,3.29,5.99v19.09Z"/><path class="cls-1" d="m489.91,404.96c-6.51-6.51-15.49-10.53-25.41-10.53v224.86h35.93v-188.93c0-9.92-4.02-18.9-10.52-25.4Z"/><path class="cls-1" d="m812.77,475.05c-21.11,0-38.66,12.62-49.9,21.12-3.57-7.41-11.52-21.12-34.01-21.12-10.69,0-20.09,3.22-27.56,7.17-7.47,3.94-13.02,8.6-16.04,11.48,0-8.03-6.51-14.53-14.53-14.53h-21.39v117.03c0,12.75,10.34,23.09,23.09,23.09h12.83v-97.62c4.39-5.48,17-15.08,28.8-15.08,13.43,0,21.38,6.85,21.38,23.03v66.58c0,12.75,10.34,23.09,23.09,23.09h12.84v-97.89c5.75-6.31,17.55-14.81,30.71-14.81s19.47,8.22,19.47,24.4v65.21c0,12.75,10.34,23.09,23.09,23.09h12.83v-94.33c0-34.28-15.9-49.91-44.7-49.91Z"/><path class="cls-1" d="m945.5,475.05c-43.6,0-76.78,33.18-76.78,74.59s33.18,73.77,75.96,73.77,75.96-33.19,75.96-73.77-32.36-74.59-75.14-74.59Zm-1.09,120.38c-19.75,0-38.12-18.92-38.12-44.97,0-27.42,16.73-46.34,39.21-46.34,20.3,0,37.3,18.92,37.3,45.52s-15.36,45.79-38.39,45.79Z"/><path class="cls-1" d="m202.63,565.86v15.5c0,2.33-1.38,4.47-3.55,5.32-4.82,1.89-11.02,3-18.06,3-14.25,0-23.15-7.57-23.15-19.37,0-10.02,10.02-15.58,21.16-15.58,7.82,0,15.79,2.95,20.93,6.27,1.65,1.06,2.67,2.88,2.67,4.86Z"/><path class="cls-1" d="m236.79,401.9h-115.32c-34.19,0-61.91,27.73-61.91,61.92v115.32c0,34.2,27.72,61.92,61.91,61.92h78.22l36.71,36.71v-36.71h.39c34.2,0,61.92-27.72,61.92-61.92v-115.32c0-34.19-27.72-61.92-61.92-61.92Zm-68.66,61.51l23.4-29.77c3.2-4.06,9.05-4.82,13.18-1.71l6.59,4.98c4.89,3.69,5.05,10.98.33,14.88l-29.99,24.8c-3.37,2.78-8.2,2.91-11.7.31-4.3-3.19-5.11-9.28-1.81-13.49Zm62.33,128.9c0,3.29-1.69,6.35-4.5,8.07-9.46,5.77-24.86,10.91-47.16,10.91-34.96,0-50.99-19.38-50.99-41.42,0-26.06,24.94-35.86,46.32-35.86,7.78,0,22.04,2.67,28.5,7.57v-11.58c0-9.35-6.91-15.8-22.5-15.8-7.11,0-13.7,1.1-19.11,2.45-7.44,1.87-15.09-2.04-18.01-9.12l-2.96-7.14c10.24-4.9,24.28-9.58,42.54-9.58,37.85,0,47.87,18.04,47.87,46.1v55.4Z"/><path class="cls-1" d="m740.58,641.08h13.66c6.96,0,12.66,5.63,12.66,12.59,0,4.29-2.08,7.77-5.22,9.04v.27c4.15,1.07,7.7,5.83,7.7,11.39,0,7.5-6.1,13.59-13.6,13.59h-15.2v-46.88Zm12.99,5.49h-6.63v14.33h6.63c3.95,0,7.17-3.21,7.17-7.23s-3.21-7.1-7.17-7.1Zm-6.63,19.96v15.54h8.3c4.29,0,7.77-3.48,7.77-7.7s-3.48-7.84-7.77-7.84h-8.3Z"/><path class="cls-1" d="m780.83,674.3c.6,5.29,3.68,8.97,9.18,8.97,3.35,0,6.5-1.67,8.57-4.35l4.15,3.95c-2.81,3.15-7.23,5.89-12.72,5.89-10.11,0-15.27-7.17-15.27-15.74s5.83-15,14.2-15c9.38,0,14,7.7,14,14.93,0,.54,0,.87-.07,1.34h-22.03Zm.34-5.09h15.4c-.4-2.68-3.08-5.96-7.63-5.96-3.88,0-6.7,2.28-7.77,5.96Z"/><path class="cls-1" d="m816.73,662.64l.27.13c1.07-2.54,4.35-4.75,8.77-4.75,6.9,0,10.85,4.22,10.85,11.25v10.65c0,2.34.07,6.76.07,8.04h-6.16c0-1.27.07-5.69.07-8.04v-9.38c0-5.36-2.75-7.43-6.16-7.43-3.88,0-7.3,2.88-7.3,7.83v8.97c0,2.34.07,6.76.07,8.04h-6.16c0-1.27.07-5.69.07-8.04v-13.06c0-2.34-.07-6.76-.07-8.04h6.03c-.07,1.54-.2,3.42-.34,3.82Z"/><path class="cls-1" d="m850.08,674.3c.6,5.29,3.68,8.97,9.18,8.97,3.35,0,6.5-1.67,8.57-4.35l4.15,3.95c-2.81,3.15-7.23,5.89-12.72,5.89-10.11,0-15.27-7.17-15.27-15.74s5.83-15,14.2-15c9.38,0,14,7.7,14,14.93,0,.54,0,.87-.07,1.34h-22.03Zm.34-5.09h15.4c-.4-2.68-3.08-5.96-7.63-5.96-3.88,0-6.7,2.28-7.77,5.96Z"/><path class="cls-1" d="m891.6,658.76v6.03c-.8,0-4.42-.07-5.22-.07v29.94c0,2.34.07,6.76.07,8.04h-6.16c0-1.27.07-5.69.07-8.04v-48.02c0-8.1,5.36-12.72,12.19-12.72v5.89c-3.48,0-6.16,2.48-6.16,6.83v12.19c1.94,0,4.42-.07,5.22-.07Z"/><path class="cls-1" d="m899.3,650.79l8.04-10.11,5.42,3.01-10.71,9.24-2.75-2.14Zm1.14,16.07c0-2.34-.07-6.76-.07-8.04h6.16c0,1.27-.07,5.69-.07,8.04v13.06c0,2.34.07,6.76.07,8.04h-6.16c0-1.27.07-5.69.07-8.04v-13.06Z"/><path class="cls-1" d="m941.02,664.25l-4.62,3.62c-1.54-2.41-4.02-4.22-7.17-4.22-4.82,0-8.71,4.35-8.71,9.78s3.88,9.71,8.71,9.71c4.09,0,6.56-2.21,8.04-4.29l4.29,4.02c-2.81,3.28-6.63,5.89-12.32,5.89-8.1,0-14.73-6.9-14.73-15.34s6.63-15.4,14.73-15.4c5.76,0,9.78,3.35,11.79,6.23Z"/><path class="cls-1" d="m955.22,666.86v13.06c0,2.34.07,6.76.07,8.04h-6.16c0-1.27.07-5.69.07-8.04v-13.06c0-2.34-.07-6.76-.07-8.04h6.16c0,1.27-.07,5.69-.07,8.04Zm0-17.48c0,.54-1.34,1.07-3.01,1.07s-3.01-.54-3.01-1.07v-5.22c0-.54,1.41-1.07,3.08-1.07s2.95.54,2.95,1.07v5.22Z"/><path class="cls-1" d="m993.99,673.43c0,8.5-6.9,15.34-15.4,15.34s-15.34-6.83-15.34-15.34,6.83-15.4,15.34-15.4,15.4,6.9,15.4,15.4Zm-24.71,0c0,5.36,4.15,9.71,9.31,9.71s9.38-4.35,9.38-9.71-4.22-9.78-9.38-9.78-9.31,4.35-9.31,9.78Z"/><path class="cls-1" d="m1014.68,665.46c-1.21-1.21-3.01-2.48-5.02-2.48-1.74,0-2.95.87-2.95,2.34,0,2.01,2.75,3.21,4.96,4.55,3.75,2.34,7.77,4.69,7.77,10.11,0,4.55-3.68,8.77-10.18,8.77-4.62,0-7.9-1.88-11.25-4.69l3.82-4.35c2.08,1.81,4.62,3.55,7.43,3.55,2.41,0,4.15-1.54,4.15-3.28,0-2.08-2.48-3.62-4.96-5.16-3.75-2.28-7.5-4.62-7.5-9.51,0-3.68,3.28-7.3,8.71-7.3,3.42,0,6.23,1.67,8.24,3.48l-3.21,3.95Z"/></svg>