<?xml version="1.0" encoding="utf-8"?>
<!-- Generator: Adobe Illustrator 27.6.1, SVG Export Plug-In . SVG Version: 6.00 Build 0)  -->
<svg version="1.1" id="Layer_1" xmlns="http://www.w3.org/2000/svg" xmlns:xlink="http://www.w3.org/1999/xlink" x="0px" y="0px"
	 viewBox="0 0 1080 1080" style="enable-background:new 0 0 1080 1080;" xml:space="preserve">
<style type="text/css">
	.st0{display:none;fill:url(#SVGID_1_);}
	.st1{fill:#FFFFFF;}
</style>
<linearGradient id="SVGID_1_" gradientUnits="userSpaceOnUse" x1="0" y1="1079.4646" x2="1080" y2="-0.5354" gradientTransform="matrix(1 0 0 -1 0 1079.4646)">
	<stop  offset="0" style="stop-color:#EF7820"/>
	<stop  offset="1" style="stop-color:#E6381F"/>
</linearGradient>
<rect y="0" class="st0" width="1080" height="1080"/>
<path class="st1" d="M394.3,475.1c-22.5,0-39.8,5.8-52.4,11.8l3.6,8.8c3.6,8.7,13,13.5,22.2,11.2c6.7-1.7,14.8-3,23.5-3
	c19.2,0,27.7,8,27.7,19.5v14.3c-8-6-25.5-9.3-35.1-9.3c-26.3,0-57,12.1-57,44.2c0,27.2,19.8,51,62.8,51c27.5,0,46.4-6.3,58.1-13.4
	c3.5-2.1,5.5-5.9,5.5-9.9v-68.2C453.3,497.3,440.9,475.1,394.3,475.1L394.3,475.1z M419,586.6c0,2.9-1.7,5.5-4.4,6.5
	c-5.9,2.3-13.6,3.7-22.2,3.7c-17.5,0-28.5-9.3-28.5-23.9c0-12.3,12.3-19.2,26-19.2c9.6,0,19.5,3.6,25.8,7.7c2,1.3,3.3,3.6,3.3,6
	V586.6z"/>
<path class="st1" d="M378.7,457.9L378.7,457.9c-5.3-3.9-6.3-11.4-2.2-16.6l28.8-36.7c3.9-5,11.1-5.9,16.2-2.1l8.1,6.1
	c6,4.5,6.2,13.5,0.4,18.3l-36.9,30.5C389,461,383,461.1,378.7,457.9L378.7,457.9z"/>
<path class="st1" d="M579.1,475.1c-22.5,0-39.8,5.8-52.4,11.8l3.6,8.8c3.6,8.7,13,13.5,22.2,11.2c6.7-1.7,14.8-3,23.6-3
	c19.2,0,27.7,8,27.7,19.5v14.3c-8-6-25.5-9.3-35.1-9.3c-26.3,0-57,12-57,44.1c0,27.1,19.7,51,62.8,51c27.5,0,46.4-6.3,58.1-13.4
	c3.5-2.1,5.5-5.9,5.5-10v-68.2C638.1,497.3,625.8,475.1,579.1,475.1L579.1,475.1z M603.8,586.5c0,2.9-1.7,5.5-4.4,6.6
	c-5.9,2.3-13.6,3.7-22.2,3.7c-17.5,0-28.5-9.3-28.5-23.8c0-12.3,12.3-19.2,26-19.2c9.6,0,19.5,3.7,25.8,7.7c2,1.3,3.3,3.6,3.3,6
	V586.5z"/>
<path class="st1" d="M489.9,405c-6.5-6.5-15.5-10.5-25.4-10.5v224.9h35.9V430.4C500.4,420.4,496.4,411.5,489.9,405z"/>
<path class="st1" d="M812.8,475c-21.1,0-38.7,12.6-49.9,21.1c-3.6-7.4-11.5-21.1-34-21.1c-10.7,0-20.1,3.2-27.6,7.2
	c-7.5,3.9-13,8.6-16,11.5c0-8-6.5-14.5-14.5-14.5h-21.4v117c0,12.8,10.3,23.1,23.1,23.1h12.8v-97.6c4.4-5.5,17-15.1,28.8-15.1
	c13.4,0,21.4,6.9,21.4,23v66.6c0,12.8,10.3,23.1,23.1,23.1h12.8v-97.9c5.8-6.3,17.5-14.8,30.7-14.8s19.5,8.2,19.5,24.4v65.2
	c0,12.8,10.3,23.1,23.1,23.1h12.8V525C857.5,490.7,841.6,475.1,812.8,475L812.8,475z"/>
<path class="st1" d="M945.5,475c-43.6,0-76.8,33.2-76.8,74.6s33.2,73.8,76,73.8s76-33.2,76-73.8S988.3,475.1,945.5,475L945.5,475z
	 M944.4,595.4c-19.8,0-38.1-18.9-38.1-45c0-27.4,16.7-46.3,39.2-46.3c20.3,0,37.3,18.9,37.3,45.5S967.4,595.4,944.4,595.4
	L944.4,595.4z"/>
<path class="st1" d="M202.6,565.9v15.5c0,2.3-1.4,4.5-3.6,5.3c-4.8,1.9-11,3-18.1,3c-14.2,0-23.1-7.6-23.1-19.4
	c0-10,10-15.6,21.2-15.6c7.8,0,15.8,3,20.9,6.3C201.6,562.1,202.6,563.9,202.6,565.9L202.6,565.9z"/>
<path class="st1" d="M236.8,401.9H121.5c-34.2,0-61.9,27.7-61.9,61.9v115.3c0,34.2,27.7,61.9,61.9,61.9h78.2l36.7,36.7v-36.7h0.4
	c34.2,0,61.9-27.7,61.9-61.9V463.8C298.7,429.6,271,401.9,236.8,401.9L236.8,401.9z M168.1,463.4l23.4-29.8
	c3.2-4.1,9.1-4.8,13.2-1.7l6.6,5c4.9,3.7,5.1,11,0.3,14.9l-30,24.8c-3.4,2.8-8.2,2.9-11.7,0.3C165.6,473.7,164.8,467.6,168.1,463.4
	L168.1,463.4z M230.5,592.3c0,3.3-1.7,6.3-4.5,8.1c-9.5,5.8-24.9,10.9-47.2,10.9c-35,0-51-19.4-51-41.4c0-26.1,24.9-35.9,46.3-35.9
	c7.8,0,22,2.7,28.5,7.6V530c0-9.3-6.9-15.8-22.5-15.8c-7.1,0-13.7,1.1-19.1,2.5c-7.4,1.9-15.1-2-18-9.1l-3-7.1
	c10.2-4.9,24.3-9.6,42.5-9.6c37.9,0,47.9,18,47.9,46.1L230.5,592.3L230.5,592.3z"/>
<path class="st1" d="M740.6,641.1h13.7c7,0,12.7,5.6,12.7,12.6c0,4.3-2.1,7.8-5.2,9v0.3c4.2,1.1,7.7,5.8,7.7,11.4
	c0,7.5-6.1,13.6-13.6,13.6h-15.2V641.1L740.6,641.1z M753.6,646.6h-6.6v14.3h6.6c4,0,7.2-3.2,7.2-7.2S757.5,646.6,753.6,646.6
	L753.6,646.6z M746.9,666.5v15.5h8.3c4.3,0,7.8-3.5,7.8-7.7s-3.5-7.8-7.8-7.8L746.9,666.5L746.9,666.5z"/>
<path class="st1" d="M780.8,674.3c0.6,5.3,3.7,9,9.2,9c3.3,0,6.5-1.7,8.6-4.3l4.2,4c-2.8,3.2-7.2,5.9-12.7,5.9
	c-10.1,0-15.3-7.2-15.3-15.7s5.8-15,14.2-15c9.4,0,14,7.7,14,14.9c0,0.5,0,0.9-0.1,1.3L780.8,674.3L780.8,674.3z M781.2,669.2h15.4
	c-0.4-2.7-3.1-6-7.6-6C785.1,663.2,782.2,665.5,781.2,669.2z"/>
<path class="st1" d="M816.7,662.6l0.3,0.1c1.1-2.5,4.3-4.8,8.8-4.8c6.9,0,10.8,4.2,10.8,11.2v10.7c0,2.3,0.1,6.8,0.1,8h-6.2
	c0-1.3,0.1-5.7,0.1-8v-9.4c0-5.4-2.8-7.4-6.2-7.4c-3.9,0-7.3,2.9-7.3,7.8v9c0,2.3,0.1,6.8,0.1,8h-6.2c0-1.3,0.1-5.7,0.1-8v-13.1
	c0-2.3-0.1-6.8-0.1-8h6C817,660.4,816.9,662.2,816.7,662.6L816.7,662.6z"/>
<path class="st1" d="M850.1,674.3c0.6,5.3,3.7,9,9.2,9c3.3,0,6.5-1.7,8.6-4.3l4.2,4c-2.8,3.2-7.2,5.9-12.7,5.9
	c-10.1,0-15.3-7.2-15.3-15.7s5.8-15,14.2-15c9.4,0,14,7.7,14,14.9c0,0.5,0,0.9-0.1,1.3L850.1,674.3L850.1,674.3z M850.4,669.2h15.4
	c-0.4-2.7-3.1-6-7.6-6C854.3,663.2,851.5,665.5,850.4,669.2z"/>
<path class="st1" d="M891.6,658.8v6c-0.8,0-4.4-0.1-5.2-0.1v29.9c0,2.3,0.1,6.8,0.1,8h-6.2c0-1.3,0.1-5.7,0.1-8v-48
	c0-8.1,5.4-12.7,12.2-12.7v5.9c-3.5,0-6.2,2.5-6.2,6.8v12.2C888.3,658.8,890.8,658.8,891.6,658.8L891.6,658.8z"/>
<path class="st1" d="M899.3,650.8l8-10.1l5.4,3l-10.7,9.2L899.3,650.8L899.3,650.8z M900.4,666.9c0-2.3-0.1-6.8-0.1-8h6.2
	c0,1.3-0.1,5.7-0.1,8v13.1c0,2.3,0.1,6.8,0.1,8h-6.2c0-1.3,0.1-5.7,0.1-8V666.9z"/>
<path class="st1" d="M941,664.2l-4.6,3.6c-1.5-2.4-4-4.2-7.2-4.2c-4.8,0-8.7,4.3-8.7,9.8s3.9,9.7,8.7,9.7c4.1,0,6.6-2.2,8-4.3l4.3,4
	c-2.8,3.3-6.6,5.9-12.3,5.9c-8.1,0-14.7-6.9-14.7-15.3s6.6-15.4,14.7-15.4C935,658,939,661.4,941,664.2L941,664.2z"/>
<path class="st1" d="M955.2,666.9v13.1c0,2.3,0.1,6.8,0.1,8h-6.2c0-1.3,0.1-5.7,0.1-8v-13.1c0-2.3-0.1-6.8-0.1-8h6.2
	C955.3,660.1,955.2,664.5,955.2,666.9z M955.2,649.4c0,0.5-1.3,1.1-3,1.1s-3-0.5-3-1.1v-5.2c0-0.5,1.4-1.1,3.1-1.1s3,0.5,3,1.1
	L955.2,649.4L955.2,649.4z"/>
<path class="st1" d="M994,673.4c0,8.5-6.9,15.3-15.4,15.3s-15.3-6.8-15.3-15.3s6.8-15.4,15.3-15.4S994,664.9,994,673.4z
	 M969.3,673.4c0,5.4,4.2,9.7,9.3,9.7s9.4-4.3,9.4-9.7s-4.2-9.8-9.4-9.8S969.3,668,969.3,673.4z"/>
<path class="st1" d="M1014.7,665.5c-1.2-1.2-3-2.5-5-2.5c-1.7,0-3,0.9-3,2.3c0,2,2.8,3.2,5,4.5c3.8,2.3,7.8,4.7,7.8,10.1
	c0,4.5-3.7,8.8-10.2,8.8c-4.6,0-7.9-1.9-11.2-4.7l3.8-4.3c2.1,1.8,4.6,3.5,7.4,3.5c2.4,0,4.2-1.5,4.2-3.3c0-2.1-2.5-3.6-5-5.2
	c-3.8-2.3-7.5-4.6-7.5-9.5c0-3.7,3.3-7.3,8.7-7.3c3.4,0,6.2,1.7,8.2,3.5L1014.7,665.5L1014.7,665.5z"/>
</svg>
