<?xml version="1.0" encoding="UTF-8"?><svg xmlns="http://www.w3.org/2000/svg" viewBox="0 0 644.08 195.13"><defs><style>.d{fill:#fff;}</style></defs><g id="a"/><g id="b"><g id="c"><g><g><g><path class="d" d="M395.25,195.13v-22.65c2.07-1.36,4.6-1.98,6.87-1.98,4.47,0,8.65,2.79,8.65,8.43,0,4.38-2.82,8.39-7.78,8.39-1.82,0-3.76-.88-4.89-1.88v9.69h-2.85Zm2.85-12.54c.94,1.3,2.85,2.27,4.73,2.27,2.66,0,4.93-2.24,4.93-5.9,0-3.44-2.2-5.99-5.9-5.99-1.39,0-3.01,.55-3.76,1.07v8.56Z"/><path class="d" d="M414.39,186.86v-15.94h2.85v2.4c.23-.78,1.59-2.79,3.43-2.79,1.3,0,2.3,.45,2.72,.75l-1.13,2.69c-.42-.29-1.07-.71-1.98-.71-1.85,0-2.95,2.11-3.05,3.5v10.11h-2.85Z"/><path class="d" d="M432.93,187.32c-4.8,0-8.56-3.69-8.56-8.39s3.76-8.43,8.59-8.43,8.49,3.79,8.49,8.43-3.73,8.39-8.52,8.39Zm5.51-8.39c0-3.5-2.53-5.99-5.51-5.99-3.27,0-5.57,2.53-5.57,6.09s2.62,5.93,5.51,5.93c3.31,0,5.57-2.43,5.57-6.03Z"/><path class="d" d="M446.02,186.86v-13.55h-2.95v-2.37h2.95v-5.54h2.85v5.54h3.92v2.37h-3.92v13.55h-2.85Z"/><path class="d" d="M469.28,184.89c-.91,1.2-3.43,2.43-6.71,2.43-4.86,0-8.36-3.31-8.36-8.33s3.34-8.49,8.2-8.49,7.36,3.92,7.36,8.13v.84h-12.67c0,.39,.06,.78,.1,.97,.58,3.21,3.14,4.51,5.99,4.51,2.66,0,4.38-1.2,5.09-1.98l1,1.91Zm-2.4-7.78c-.42-2.43-1.75-4.28-4.54-4.28-2.4,0-4.5,1.3-5.15,4.28h9.69Z"/><path class="d" d="M486.81,184.76c-1.04,1.33-3.11,2.56-6.25,2.56-4.7,0-8.26-3.63-8.26-8.39s3.6-8.43,8.52-8.43c2.88,0,4.96,1.49,5.48,2.01l-1.23,2.07c-.42-.42-1.98-1.69-4.21-1.69-2.79,0-5.57,2.07-5.57,6.06,0,3.63,2.56,5.96,5.64,5.96,2.59,0,4.08-1.04,4.83-1.88l1.07,1.72Zm-10.76,9.59l2.75-5.57h3.18l-3.14,5.57h-2.79Z"/><path class="d" d="M502.39,185.18c-1.39,1.2-3.76,2.14-7.03,2.14-4.76,0-6.93-2.75-6.93-5.77,0-3.63,3.69-5.15,6.58-5.15,1.52,0,3.34,.42,4.63,1.56v-1.98c0-1.75-1.33-3.05-3.95-3.05-2.07,0-3.89,.68-4.44,.94l-.94-2.14c1.23-.55,3.08-1.23,5.54-1.23,5.22,0,6.55,2.46,6.55,6.16v8.52Zm-.68-19.67c-.42,.58-1.91,2.4-3.79,2.4-1.33,0-2.5-1.39-3.82-1.39-1.07,0-2.14,1.07-2.69,1.56l-1.33-1.56c.78-.78,2.66-2.4,4.15-2.4s2.59,1.43,3.79,1.43,2.27-1.13,2.66-1.59l1.04,1.56Zm-2.07,14.94c-.84-.75-2.33-1.62-4.25-1.62-2.69,0-4.02,1.39-4.02,2.95s1.43,3.11,4.18,3.11c1.75,0,3.14-.45,4.08-1.1v-3.34Z"/><path class="d" d="M514.22,187.32c-4.8,0-8.56-3.69-8.56-8.39s3.76-8.43,8.59-8.43,8.49,3.79,8.49,8.43-3.73,8.39-8.52,8.39Zm5.51-8.39c0-3.5-2.53-5.99-5.51-5.99-3.27,0-5.57,2.53-5.57,6.09s2.62,5.93,5.51,5.93c3.31,0,5.57-2.43,5.57-6.03Z"/><path class="d" d="M539.2,187.19l-7.36-16.27h3.11l3.99,9.37c.29,.58,.71,1.78,.88,2.4h.03c.13-.62,.55-1.69,.84-2.4l3.92-9.37h3.08l-7.26,16.27h-1.23Z"/><path class="d" d="M563.82,184.89c-.91,1.2-3.43,2.43-6.71,2.43-4.86,0-8.36-3.31-8.36-8.33s3.34-8.49,8.2-8.49,7.36,3.92,7.36,8.13v.84h-12.67c0,.39,.06,.78,.1,.97,.58,3.21,3.14,4.51,5.99,4.51,2.66,0,4.38-1.2,5.09-1.98l1,1.91Zm-2.4-7.78c-.42-2.43-1.75-4.28-4.54-4.28-2.4,0-4.5,1.3-5.15,4.28h9.69Z"/><path class="d" d="M567.42,165.96c0-1.2,.88-2.01,2.01-2.01,1.2,0,1.98,.84,1.98,2.01s-.84,1.98-1.98,1.98-2.01-.84-2.01-1.98Zm.55,20.9v-15.94h2.88v15.94h-2.88Z"/><path class="d" d="M589.1,184.76c-1.04,1.33-3.11,2.56-6.25,2.56-4.7,0-8.26-3.63-8.26-8.39s3.6-8.43,8.52-8.43c2.88,0,4.96,1.49,5.48,2.01l-1.23,2.07c-.42-.42-1.98-1.69-4.21-1.69-2.79,0-5.57,2.07-5.57,6.06,0,3.63,2.56,5.96,5.64,5.96,2.59,0,4.08-1.04,4.83-1.88l1.07,1.72Z"/><path class="d" d="M603.06,170.92h2.88v14.16c-1.72,1.52-3.92,2.24-6.84,2.24-4.05,0-6.93-2.04-6.93-6.16v-10.24h2.88v9.59c0,3.21,1.81,4.41,4.25,4.41,1.94,0,3.11-.65,3.76-1.1v-12.9Z"/><path class="d" d="M610.61,186.86v-26.57h2.85v26.57h-2.85Z"/><path class="d" d="M630.79,185.18c-1.39,1.2-3.76,2.14-7.03,2.14-4.76,0-6.93-2.75-6.93-5.77,0-3.63,3.69-5.15,6.58-5.15,1.52,0,3.34,.42,4.63,1.56v-1.98c0-1.75-1.33-3.05-3.95-3.05-2.07,0-3.89,.68-4.44,.94l-.94-2.14c1.23-.55,3.08-1.23,5.54-1.23,5.22,0,6.55,2.46,6.55,6.16v8.52Zm-2.75-4.73c-.84-.75-2.33-1.62-4.25-1.62-2.69,0-4.02,1.39-4.02,2.95s1.43,3.11,4.18,3.11c1.75,0,3.14-.45,4.08-1.1v-3.34Z"/><path class="d" d="M635.07,186.86v-15.94h2.85v2.4c.23-.78,1.59-2.79,3.43-2.79,1.3,0,2.3,.45,2.72,.75l-1.13,2.69c-.42-.29-1.07-.71-1.98-.71-1.85,0-2.95,2.11-3.05,3.5v10.11h-2.85Z"/></g><g><path class="d" d="M213.89,42.54h0c-3.54-2.63-4.22-7.66-1.49-11.13l19.31-24.57c2.64-3.35,7.47-3.98,10.87-1.41l5.44,4.11c4.04,3.05,4.17,9.06,.27,12.29l-24.75,20.47c-2.78,2.3-6.76,2.4-9.66,.25Z"/><g><path class="d" d="M224.33,54.03c-15.07,0-26.65,3.86-35.1,7.9l2.44,5.89c2.41,5.84,8.73,9.07,14.86,7.53,4.46-1.12,9.9-2.02,15.78-2.02,12.87,0,18.56,5.33,18.56,13.05v9.56c-5.33-4.04-17.09-6.25-23.52-6.25-17.65,0-38.23,8.09-38.23,29.59,0,18.19,13.24,34.18,42.09,34.18,18.4,0,31.12-4.24,38.92-9,2.32-1.41,3.71-3.95,3.71-6.66v-45.72c0-23.15-8.27-38.04-39.51-38.04Zm16.54,74.72c0,1.92-1.14,3.69-2.93,4.39-3.98,1.56-9.09,2.48-14.9,2.48-11.76,0-19.11-6.25-19.11-15.99,0-8.27,8.27-12.86,17.46-12.86,6.45,0,13.03,2.44,17.28,5.17,1.37,.88,2.2,2.39,2.2,4.01v12.79Z"/><path class="d" d="M348.2,54.03c-15.07,0-26.64,3.85-35.1,7.9l2.43,5.9c2.41,5.83,8.74,9.06,14.86,7.52,4.47-1.12,9.91-2.03,15.79-2.03,12.85,0,18.56,5.33,18.56,13.05v9.56c-5.32-4.04-17.09-6.25-23.52-6.25-17.64,0-38.23,8.08-38.23,29.58,0,18.19,13.23,34.18,42.08,34.18,18.41,0,31.12-4.24,38.93-9,2.32-1.41,3.7-3.95,3.7-6.66v-45.72c0-23.16-8.27-38.04-39.51-38.04Zm16.54,74.72c0,1.92-1.14,3.69-2.93,4.4-3.98,1.55-9.09,2.47-14.89,2.47-11.76,0-19.11-6.25-19.11-15.98,0-8.27,8.27-12.86,17.45-12.86,6.46,0,13.03,2.44,17.27,5.17,1.37,.89,2.21,2.39,2.21,4.01v12.79Z"/><path class="d" d="M271.38,0h0V150.69h24.07V24.07c0-13.3-10.78-24.07-24.07-24.07Z"/><path class="d" d="M504.77,54.03c-14.15,0-25.91,8.45-33.45,14.15-2.39-4.96-7.72-14.15-22.79-14.15s-25.18,8.64-29.22,12.5c0-5.38-4.36-9.74-9.74-9.74h-14.33v78.43c0,8.55,6.93,15.47,15.47,15.47h8.6V85.27c2.94-3.68,11.39-10.11,19.3-10.11,9,0,14.33,4.6,14.33,15.44v44.62c0,8.55,6.93,15.47,15.47,15.47h8.6V85.09c3.86-4.23,11.76-9.92,20.58-9.92s13.05,5.51,13.05,16.36v43.7c0,8.55,6.93,15.47,15.47,15.47h8.6v-63.22c0-22.97-10.66-33.45-29.95-33.45Z"/><path class="d" d="M593.72,54.03c-29.22,0-51.46,22.24-51.46,49.98s22.24,49.43,50.9,49.43,50.91-22.24,50.91-49.43-21.69-49.98-50.35-49.98Zm-.74,80.67c-13.23,0-25.54-12.68-25.54-30.14,0-18.38,11.21-31.06,26.28-31.06,13.6,0,24.99,12.68,24.99,30.5s-10.29,30.69-25.73,30.69Z"/></g></g></g><g><path class="d" d="M94.09,111.62c-3.44-2.22-8.79-4.2-14.03-4.2-7.46,0-14.18,3.73-14.18,10.45,0,7.91,5.97,12.98,15.52,12.98,4.71,0,8.87-.74,12.1-2.01,1.45-.57,2.38-2.01,2.38-3.57v-10.38c0-1.32-.68-2.55-1.79-3.26Z"/><path class="d" d="M118.78,5.01H41.49C18.58,5.01,0,23.58,0,46.5V123.78c0,22.92,18.58,41.49,41.49,41.49h52.42l24.6,24.6v-24.6h.26c22.92,0,41.49-18.58,41.49-41.49V46.5c0-22.92-18.58-41.49-41.49-41.49Zm-46.02,41.22l15.68-19.95c2.14-2.72,6.07-3.23,8.83-1.15l4.42,3.33c3.28,2.47,3.39,7.36,.22,9.98l-20.1,16.62c-2.26,1.86-5.49,1.95-7.84,.21-2.88-2.13-3.42-6.22-1.21-9.04Zm41.77,86.38c0,2.2-1.13,4.25-3.02,5.41-6.34,3.86-16.66,7.31-31.61,7.31-23.42,0-34.17-12.99-34.17-27.76,0-17.46,16.71-24.03,31.04-24.03,5.22,0,14.77,1.79,19.1,5.07v-7.76c0-6.27-4.63-10.59-15.08-10.59-4.77,0-9.18,.73-12.81,1.65-4.98,1.25-10.11-1.37-12.07-6.11l-1.98-4.78c6.86-3.28,16.27-6.42,28.51-6.42,25.37,0,32.08,12.09,32.08,30.89v37.12Z"/></g></g></g></g></svg>